# xmcd
#
# Track frame offsets:
#	150
#	17769
#	28294
#	46193
#	61748
#	76067
#	87787
#	104231
#	116948
#	131018
#	144050
#	155847
#
# Disc length: 2278 seconds
#
# Revision: 0
# Processed by: cddbd v1.4PL0 Copyright (c) Steve Scherf et al.
# Submitted via: EasyCDDAExtractor 4.5.0.2
#
DISCID=9d08e40c
DTITLE=CLINTON GREGORY - Freeborn Man
DYEAR=1900
DGENRE=Country
TTITLE0=Play Ruby Play
TTITLE1=She Takes The Sad Out Of Saturday Night
TTITLE2=Freeborn Man
TTITLE3=Who Needs It
TTITLE4=If A Broken Heart Could Kill
TTITLE5=Till This Ring Turns Green
TTITLE6=The Game Is The Same
TTITLE7=Look Who's Needing Who
TTITLE8=She Can't Believe My Eyes
TTITLE9=Here's To You, Tears To Me
TTITLE10=The Jukebox Has A 45
TTITLE11=I Wish It Was That Easy Going Home
EXTD=
EXTT0=
EXTT1=
EXTT2=
EXTT3=
EXTT4=
EXTT5=
EXTT6=
EXTT7=
EXTT8=
EXTT9=
EXTT10=
EXTT11=
PLAYORDER=
